<!-- Generated by IcoMoon.io -->
<svg version="1.1" xmlns="http://www.w3.org/2000/svg" width="31" height="32" viewBox="0 0 31 32">
<title>logo3</title>
<path fill="#afb1b8" d="M4.722 31.103c0.011 0 0.022 0.003 0.032 0.007s0.019 0.011 0.027 0.018l0.153 0.161c-0.119 0.13-0.266 0.234-0.431 0.305-0.193 0.077-0.401 0.115-0.611 0.109-0.197 0.004-0.392-0.031-0.574-0.102-0.164-0.065-0.312-0.164-0.433-0.288-0.123-0.129-0.218-0.28-0.279-0.445-0.067-0.184-0.1-0.377-0.098-0.571-0.003-0.195 0.033-0.39 0.105-0.573 0.067-0.166 0.168-0.317 0.297-0.445 0.131-0.126 0.287-0.224 0.459-0.29 0.189-0.070 0.389-0.104 0.591-0.102 0.188-0.004 0.375 0.027 0.549 0.093 0.152 0.063 0.291 0.15 0.412 0.257l-0.128 0.171c-0.009 0.012-0.020 0.023-0.033 0.031-0.015 0.010-0.033 0.014-0.052 0.013-0.020-0.001-0.039-0.008-0.056-0.018l-0.069-0.046-0.096-0.058c-0.041-0.022-0.084-0.041-0.128-0.057-0.057-0.019-0.115-0.035-0.174-0.046-0.075-0.013-0.151-0.019-0.228-0.018-0.146-0.002-0.29 0.024-0.425 0.077-0.126 0.048-0.239 0.122-0.333 0.215-0.095 0.099-0.169 0.216-0.216 0.343-0.054 0.145-0.080 0.298-0.078 0.452-0.002 0.156 0.024 0.312 0.078 0.46 0.047 0.126 0.119 0.242 0.212 0.341 0.088 0.093 0.196 0.165 0.318 0.212 0.125 0.049 0.259 0.074 0.394 0.073 0.078 0.001 0.156-0.004 0.234-0.015 0.126-0.015 0.247-0.056 0.354-0.122 0.054-0.034 0.104-0.072 0.151-0.113 0.020-0.018 0.046-0.028 0.073-0.029z"></path>
<path fill="#afb1b8" d="M9.144 30.296c0.002 0.194-0.033 0.386-0.103 0.567-0.062 0.165-0.161 0.315-0.288 0.44s-0.282 0.224-0.452 0.289c-0.375 0.136-0.789 0.136-1.164 0-0.169-0.066-0.323-0.165-0.45-0.29-0.128-0.128-0.227-0.279-0.291-0.445-0.138-0.367-0.138-0.769 0-1.136 0.065-0.166 0.164-0.317 0.291-0.447 0.128-0.121 0.281-0.216 0.45-0.279 0.374-0.139 0.79-0.139 1.164 0 0.17 0.066 0.324 0.165 0.452 0.29 0.126 0.127 0.224 0.276 0.289 0.44 0.071 0.183 0.106 0.376 0.103 0.571zM8.742 30.296c0.003-0.155-0.022-0.309-0.073-0.456-0.043-0.126-0.113-0.242-0.205-0.341-0.090-0.094-0.2-0.167-0.323-0.215-0.272-0.1-0.574-0.1-0.846 0-0.123 0.048-0.234 0.121-0.324 0.215-0.093 0.098-0.164 0.215-0.207 0.341-0.097 0.297-0.097 0.615 0 0.912 0.043 0.126 0.114 0.242 0.207 0.341 0.090 0.093 0.2 0.166 0.324 0.213 0.273 0.097 0.573 0.097 0.846 0 0.123-0.047 0.234-0.12 0.323-0.213 0.092-0.099 0.162-0.215 0.205-0.341 0.051-0.147 0.076-0.301 0.073-0.456z"></path>
<path fill="#afb1b8" d="M12.161 30.774l0.040 0.102c0.015-0.036 0.029-0.069 0.044-0.102 0.015-0.034 0.031-0.068 0.050-0.1l0.978-1.694c0.019-0.029 0.036-0.047 0.056-0.053 0.026-0.008 0.053-0.011 0.080-0.009h0.289v2.755h-0.343v-2.026c0-0.026 0-0.055 0-0.086-0.002-0.032-0.002-0.063 0-0.095l-0.984 1.718c-0.012 0.026-0.033 0.047-0.058 0.063s-0.054 0.023-0.084 0.023h-0.056c-0.030 0-0.059-0.007-0.084-0.023s-0.045-0.037-0.057-0.063l-1.013-1.729c0 0.033 0 0.066 0 0.099s0 0.062 0 0.088v2.026h-0.331v-2.75h0.289c0.027-0.002 0.054 0.002 0.080 0.009 0.024 0.011 0.043 0.030 0.054 0.053l0.999 1.696c0.020 0.031 0.036 0.064 0.050 0.098z"></path>
<path fill="#afb1b8" d="M15.842 30.638v1.032h-0.383v-2.752h0.854c0.161-0.003 0.322 0.017 0.477 0.060 0.124 0.033 0.239 0.092 0.337 0.171 0.085 0.075 0.151 0.167 0.191 0.27 0.045 0.112 0.067 0.232 0.065 0.352 0.002 0.121-0.022 0.24-0.071 0.352-0.046 0.106-0.117 0.2-0.207 0.275-0.098 0.083-0.214 0.145-0.339 0.182-0.149 0.045-0.305 0.067-0.461 0.064l-0.463-0.007zM15.842 30.342h0.463c0.101 0.001 0.201-0.013 0.297-0.042 0.079-0.025 0.152-0.066 0.214-0.119 0.058-0.050 0.102-0.113 0.13-0.182 0.031-0.074 0.047-0.152 0.046-0.232 0.004-0.076-0.009-0.153-0.038-0.224s-0.075-0.135-0.134-0.188c-0.146-0.109-0.33-0.162-0.515-0.148h-0.463v1.134z"></path>
<path fill="#afb1b8" d="M20.987 31.673h-0.302c-0.030 0.001-0.060-0.008-0.084-0.026-0.022-0.017-0.039-0.039-0.050-0.064l-0.26-0.666h-1.307l-0.27 0.666c-0.010 0.024-0.026 0.046-0.048 0.062-0.024 0.019-0.055 0.028-0.086 0.027h-0.302l1.148-2.756h0.398l1.164 2.756zM19.092 30.65h1.080l-0.456-1.122c-0.035-0.084-0.064-0.171-0.086-0.259l-0.044 0.144c-0.013 0.044-0.029 0.084-0.042 0.117l-0.452 1.12z"></path>
<path fill="#afb1b8" d="M22.641 28.931c0.023 0.012 0.043 0.029 0.057 0.049l1.675 2.077c0-0.033 0-0.066 0-0.097s0-0.062 0-0.091v-1.951h0.343v2.756h-0.191c-0.027 0.001-0.054-0.005-0.078-0.016-0.024-0.013-0.044-0.030-0.061-0.051l-1.673-2.075c0.002 0.032 0.002 0.063 0 0.095 0 0.031 0 0.058 0 0.084v1.964h-0.343v-2.756h0.203c0.024-0.001 0.047 0.004 0.069 0.013z"></path>
<path fill="#afb1b8" d="M27.537 30.577v1.094h-0.383v-1.094l-1.059-1.66h0.343c0.029-0.002 0.059 0.007 0.082 0.024 0.021 0.018 0.038 0.039 0.052 0.062l0.662 1.071c0.027 0.046 0.050 0.088 0.069 0.128s0.034 0.078 0.048 0.117l0.050-0.119c0.019-0.043 0.040-0.085 0.065-0.126l0.653-1.078c0.014-0.021 0.030-0.041 0.050-0.058 0.023-0.019 0.052-0.029 0.082-0.027h0.346l-1.060 1.667z"></path>
<path fill="#afb1b8" d="M11.971 24.293c0.167 0.020 0.335 0.036 0.505 0.051 2.583-1.101 4.768-2.902 6.282-5.18s2.29-4.929 2.231-7.624l-2.846-2.712c0.579 2.869 0.308 5.836-0.782 8.567s-2.956 5.12-5.389 6.898z"></path>
<path fill="#afb1b8" d="M10.955 24.167l0.077 0.015c2.6-1.772 4.583-4.247 5.691-7.104s1.292-5.965 0.526-8.922l-4.054-3.862c1.64 3.175 2.3 6.728 1.903 10.246s-1.833 6.857-4.143 9.628z"></path>
<path fill="#afb1b8" d="M24.704 14.725c-0.689 2.961-2.362 5.632-4.77 7.616-0.703 0.582-1.462 1.101-2.266 1.55 1.961-0.549 3.764-1.52 5.269-2.838s2.672-2.947 3.412-4.763l-1.644-1.565z"></path>
<path fill="#afb1b8" d="M24.059 14.289l-2.341-2.23c-0.045 2.543-0.803 5.028-2.197 7.197s-3.372 3.943-5.729 5.137h0.011c0.525-0 1.050-0.030 1.572-0.089 2.203-0.857 4.148-2.219 5.664-3.967s2.553-3.825 3.021-6.047z"></path>
<path fill="#afb1b8" d="M11.294 2.664l-2.793-2.664c-2.497 0.919-4.644 2.535-6.161 4.636s-2.332 4.589-2.34 7.139v0c0.009 2.818 1.005 5.552 2.829 7.77s4.372 3.793 7.242 4.476c2.561-2.973 4.061-6.647 4.281-10.488s-0.851-7.648-3.058-10.869z"></path>
<path fill="#afb1b8" d="M30.512 13.878c-0.010-3.343-1.409-6.546-3.89-8.91s-5.843-3.696-9.352-3.706c-1.621-0.002-3.229 0.283-4.741 0.841l17.099 16.291c0.585-1.44 0.885-2.971 0.884-4.515z"></path>
</svg>
